<?xml version="1.0" standalone="no"?>
<!DOCTYPE svg PUBLIC "-//W3C//DTD SVG 20010904//EN"
 "http://www.w3.org/TR/2001/REC-SVG-20010904/DTD/svg10.dtd">
<svg version="1.0" xmlns="http://www.w3.org/2000/svg"
 width="2048.000000pt" height="2048.000000pt" viewBox="0 0 2048.000000 2048.000000"
 preserveAspectRatio="xMidYMid meet">
<metadata>
Created by potrace 1.16, written by Peter Selinger 2001-2019
</metadata>
<g transform="translate(0.000000,2048.000000) scale(0.100000,-0.100000)"
fill="#000000" stroke="none">
<path d="M9335 17335 c-170 -17 -229 -52 -270 -160 -17 -43 -17 -58 -3 -233
16 -201 24 -229 79 -281 52 -50 93 -64 186 -62 114 1 296 19 330 32 52 20 95
61 121 118 l25 55 -11 176 c-14 199 -22 235 -68 289 -70 81 -132 92 -389 66z"/>
<path d="M10690 17300 c-66 -23 -134 -89 -149 -146 -15 -57 -45 -291 -45 -349
0 -85 57 -170 134 -203 19 -8 109 -25 199 -37 185 -25 232 -21 296 23 69 48
89 99 115 300 25 199 22 228 -30 300 -46 64 -87 79 -288 107 -97 14 -177 25
-177 25 0 -1 -25 -9 -55 -20z"/>
<path d="M7895 17066 c-77 -23 -152 -47 -166 -53 -79 -34 -134 -129 -127 -217
4 -45 62 -262 91 -340 28 -75 132 -146 212 -145 67 0 347 90 400 127 49 35 83
94 92 161 4 31 -24 144 -93 375 -10 32 -77 98 -119 117 -63 29 -132 23 -290
-25z"/>
<path d="M12112 16971 c-78 -37 -103 -75 -166 -250 -68 -188 -74 -222 -52
-288 29 -88 78 -124 256 -189 191 -70 255 -76 333 -31 64 38 86 75 151 260 62
174 68 225 36 292 -37 76 -76 103 -237 162 -176 65 -252 76 -321 44z"/>
<path d="M6655 16571 c-36 -9 -286 -143 -333 -178 -50 -38 -76 -96 -77 -173 0
-62 4 -72 79 -213 87 -165 122 -212 181 -238 51 -24 145 -25 193 -2 65 30 286
154 305 170 9 9 29 40 43 70 44 89 34 137 -60 313 -43 80 -87 157 -98 172 -42
60 -157 98 -233 79z"/>
<path d="M13505 16371 c-85 -21 -118 -54 -216 -211 -94 -151 -109 -184 -109
-248 0 -104 37 -152 190 -248 178 -111 189 -116 254 -121 87 -7 154 29 211
112 70 103 151 239 163 274 30 85 -3 203 -71 253 -33 25 -247 158 -282 175
-29 15 -105 22 -140 14z"/>
<path d="M9560 15879 c-331 -25 -781 -100 -1110 -185 -407 -105 -1081 -377
-1342 -541 -21 -12 -40 -23 -43 -23 -6 0 -216 -133 -360 -228 -87 -57 -330
-234 -390 -283 -171 -141 -442 -384 -525 -469 -304 -314 -555 -633 -777 -985
-813 -1292 -1090 -2789 -792 -4290 44 -221 101 -433 184 -680 488 -1463 1536
-2677 2913 -3373 1281 -648 2811 -796 4202 -406 768 216 1479 581 2090 1073
323 261 664 604 920 927 110 139 260 347 260 360 0 5 -33 31 -73 58 -342 232
-518 347 -526 344 -5 -1 -46 -55 -91 -118 -457 -640 -1092 -1188 -1805 -1556
-1072 -554 -2305 -710 -3490 -443 -933 211 -1773 676 -2460 1364 -765 765
-1257 1715 -1439 2777 -84 486 -90 1098 -16 1588 58 388 153 743 297 1110 184
469 452 931 783 1350 327 414 781 819 1250 1114 69 43 150 95 180 114 81 53
441 234 540 271 238 92 476 176 580 206 265 76 621 145 925 180 191 22 640 30
837 16 154 -11 505 -57 649 -85 268 -52 723 -190 974 -296 993 -420 1816
-1120 2385 -2030 139 -222 304 -546 400 -785 115 -287 223 -654 279 -945 27
-142 71 -471 71 -531 l0 -49 -142 -1 c-79 0 -228 -4 -333 -8 -177 -6 -194 -8
-247 -33 -79 -37 -142 -98 -181 -177 -29 -59 -32 -74 -32 -156 0 -108 20 -159
113 -288 33 -45 181 -255 329 -467 321 -458 567 -808 688 -980 48 -69 152
-217 231 -330 481 -690 527 -753 578 -785 42 -26 59 -30 115 -30 72 1 128 23
167 67 12 12 101 138 199 278 98 140 278 397 400 570 122 173 285 405 361 515
199 283 525 748 678 965 72 102 159 228 194 280 l64 95 -4 105 c-3 87 -8 115
-29 160 -32 69 -75 119 -137 159 -86 55 -132 61 -483 61 l-318 0 -5 43 c-2 23
-12 130 -21 237 -55 656 -230 1408 -461 1981 -39 95 -106 147 -202 156 -55 5
-68 2 -218 -61 -179 -75 -219 -101 -253 -170 -36 -72 -32 -128 22 -271 246
-658 388 -1384 403 -2060 7 -280 18 -353 65 -427 39 -61 78 -94 154 -130 59
-27 63 -28 239 -28 158 0 177 -2 172 -16 -3 -9 -59 -91 -124 -182 -65 -92
-214 -304 -332 -472 -333 -476 -368 -523 -406 -548 -89 -58 -228 -40 -292 38
-11 14 -69 96 -337 475 -261 369 -478 680 -482 691 -3 10 40 13 184 16 176 3
191 5 238 28 64 31 134 101 165 165 25 49 25 55 25 290 -1 920 -279 1921 -770
2775 -386 671 -935 1292 -1550 1755 -452 340 -945 610 -1475 810 -91 34 -212
76 -270 94 -58 18 -112 35 -120 38 -8 3 -28 9 -45 13 -16 4 -73 19 -125 33
-336 90 -725 154 -1075 177 -180 11 -637 11 -795 -1z"/>
<path d="M5425 15760 c-59 -15 -77 -27 -208 -138 -154 -130 -179 -166 -178
-262 0 -34 7 -75 16 -94 9 -18 66 -92 126 -164 125 -149 174 -182 263 -182 73
1 110 22 256 145 157 132 185 176 178 274 -3 44 -12 71 -34 105 -55 85 -217
267 -258 290 -46 27 -116 38 -161 26z"/>
<path d="M14694 15490 c-17 -4 -48 -17 -70 -30 -53 -31 -263 -256 -286 -305
-27 -61 -23 -133 10 -193 38 -71 254 -273 316 -297 58 -22 146 -16 196 14 46
26 259 252 284 299 24 47 26 144 2 193 -23 49 -234 258 -293 290 -53 30 -112
40 -159 29z"/>
<path d="M4382 14709 c-71 -13 -100 -38 -213 -184 -147 -188 -164 -245 -107
-363 16 -34 50 -66 156 -148 170 -132 181 -138 262 -139 102 0 134 23 267 194
120 154 141 201 127 280 -16 89 -60 137 -265 287 -99 73 -145 88 -227 73z"/>
<path d="M15677 14379 c-51 -12 -92 -35 -232 -132 -88 -61 -127 -94 -148 -128
-33 -54 -45 -131 -27 -183 13 -39 165 -271 209 -319 63 -69 175 -90 262 -48
48 22 252 161 295 201 59 55 82 168 49 246 -8 19 -58 97 -111 174 -87 126
-101 142 -148 164 -63 30 -100 36 -149 25z"/>
<path d="M3544 13455 c-68 -26 -107 -77 -189 -250 -83 -178 -91 -218 -56 -297
37 -82 48 -90 253 -189 128 -62 149 -69 203 -69 69 0 127 23 167 67 33 35 163
295 179 358 14 57 -2 130 -42 185 -25 34 -55 53 -197 122 -184 90 -237 102
-318 73z"/>
<path d="M3060 12081 c-69 -14 -140 -70 -165 -129 -24 -55 -85 -320 -85 -365
0 -49 36 -132 71 -164 13 -12 41 -29 61 -37 65 -27 319 -86 372 -86 83 0 168
55 200 128 21 50 86 324 86 364 0 80 -43 154 -113 197 -18 10 -99 35 -182 54
-184 44 -201 47 -245 38z"/>
<path d="M12134 11710 c-58 -12 -101 -35 -499 -265 -1147 -663 -1514 -874
-1544 -890 -48 -24 -182 -31 -243 -12 -49 15 -196 98 -923 520 -543 315 -536
312 -645 312 -75 0 -93 -4 -154 -33 -113 -53 -181 -141 -207 -269 -15 -73 -2
-151 38 -231 45 -88 90 -122 397 -296 28 -15 150 -86 271 -156 121 -70 326
-188 455 -263 129 -74 291 -168 360 -208 382 -222 389 -225 485 -236 71 -7
151 17 258 78 51 29 310 179 577 333 267 154 568 328 670 386 102 59 316 182
475 275 160 92 306 177 325 188 196 109 236 139 279 205 152 237 3 542 -275
566 -33 3 -78 1 -100 -4z"/>
<path d="M2795 10608 c-51 -18 -94 -57 -122 -111 -25 -49 -26 -62 -30 -237 -5
-202 -1 -225 53 -289 52 -62 90 -73 284 -82 96 -4 189 -5 205 -2 44 8 96 37
127 70 53 55 61 92 66 290 4 177 4 183 -21 237 -30 66 -86 110 -158 125 -63
14 -364 13 -404 -1z"/>
<path d="M3075 9170 c-49 -10 -100 -19 -112 -19 -42 -2 -129 -41 -163 -74 -42
-41 -70 -101 -70 -152 0 -56 56 -349 74 -383 21 -41 87 -98 131 -112 47 -15
124 -9 299 25 145 28 187 49 236 116 44 62 47 108 15 288 -30 171 -49 227 -92
267 -73 68 -149 78 -318 44z"/>
<path d="M3540 7813 c-99 -36 -313 -130 -339 -150 -44 -34 -81 -114 -81 -176
0 -48 66 -231 125 -346 66 -131 183 -163 346 -97 202 82 228 94 262 120 42 32
78 100 84 160 4 35 -5 68 -47 177 -88 224 -113 263 -194 300 -39 18 -123 24
-156 12z"/>
<path d="M4210 6551 c-45 -9 -63 -19 -195 -109 -184 -125 -215 -165 -215 -272
0 -72 6 -86 111 -240 92 -136 103 -149 148 -180 44 -30 150 -39 203 -17 49 21
283 182 320 221 57 59 70 175 29 251 -41 76 -184 276 -213 299 -56 42 -125 59
-188 47z"/>
<path d="M15342 6217 c-55 -21 -94 -60 -199 -198 -118 -155 -134 -195 -114
-285 16 -71 45 -103 195 -219 152 -116 170 -125 246 -125 107 0 139 25 289
224 73 96 92 129 101 173 15 72 -5 144 -57 199 -42 43 -217 179 -275 214 -45
26 -139 35 -186 17z"/>
<path d="M5052 5429 c-49 -25 -266 -248 -296 -307 -26 -49 -27 -143 -2 -195
24 -48 232 -254 294 -289 58 -34 144 -38 207 -9 49 22 274 253 300 308 26 55
30 113 11 171 -15 43 -37 71 -142 174 -79 78 -142 131 -172 145 -62 30 -142
30 -200 2z"/>
<path d="M14359 5158 c-24 -13 -100 -70 -167 -128 -140 -120 -172 -167 -172
-255 0 -73 27 -120 154 -268 125 -146 157 -167 255 -167 77 0 102 12 211 104
197 164 220 195 220 298 0 81 -18 111 -152 268 -77 91 -115 127 -152 145 -65
32 -136 33 -197 3z"/>
<path d="M6182 4547 c-61 -23 -100 -66 -193 -219 -89 -146 -94 -156 -97 -218
-7 -120 27 -163 219 -281 166 -102 162 -100 233 -101 117 -1 160 37 290 252
71 118 80 138 84 191 5 73 -15 133 -61 176 -42 40 -288 192 -330 204 -42 12
-104 10 -145 -4z"/>
<path d="M13265 4353 c-54 -12 -286 -130 -354 -181 -50 -37 -84 -119 -79 -191
3 -47 17 -81 83 -206 94 -174 131 -217 210 -240 80 -24 128 -10 307 87 115 63
158 92 179 121 32 45 52 125 43 176 -10 57 -163 338 -206 376 -20 19 -60 41
-89 49 -54 16 -59 17 -94 9z"/>
<path d="M7458 3906 c-94 -34 -118 -68 -193 -275 -62 -173 -68 -227 -34 -297
37 -78 79 -105 258 -167 178 -62 229 -69 296 -38 86 40 108 75 190 315 45 133
47 141 36 193 -12 60 -50 120 -96 151 -16 11 -64 33 -105 47 -41 15 -112 40
-157 56 -90 32 -138 35 -195 15z"/>
<path d="M11855 3760 c-49 -16 -123 -38 -163 -50 -46 -13 -86 -33 -109 -53
-43 -38 -83 -118 -83 -167 0 -37 83 -338 105 -380 37 -70 122 -120 202 -120
66 0 362 90 401 121 57 47 92 116 92 184 0 16 -22 106 -49 198 -55 192 -76
226 -161 270 -68 34 -117 34 -235 -3z"/>
<path d="M8848 3546 c-58 -16 -90 -36 -122 -79 -36 -47 -43 -72 -66 -237 -25
-179 -25 -213 1 -270 44 -98 89 -122 280 -150 178 -26 232 -27 287 -5 57 23
117 93 131 153 22 93 48 331 41 370 -15 86 -77 155 -160 180 -19 6 -93 18
-165 27 -71 9 -141 18 -155 20 -14 2 -46 -2 -72 -9z"/>
<path d="M10430 3495 c-179 -14 -224 -29 -275 -88 -55 -64 -60 -95 -46 -301
13 -197 22 -230 78 -288 63 -64 107 -73 307 -58 146 10 179 15 224 37 60 28
106 83 122 144 12 44 -3 310 -22 393 -19 85 -102 157 -193 168 -22 3 -110 0
-195 -7z"/>
</g>
</svg>
